<?xml version="1.0" standalone="no"?>
<!DOCTYPE svg PUBLIC "-//W3C//DTD SVG 20010904//EN"
 "http://www.w3.org/TR/2001/REC-SVG-20010904/DTD/svg10.dtd">
<svg version="1.0" xmlns="http://www.w3.org/2000/svg" width="200.000000pt" height="200.000000pt" viewBox="0 0 200.000000 200.000000" preserveAspectRatio="xMidYMid meet">

<g transform="translate(0.000000,200.000000) scale(0.100000,-0.100000)" fill="#000000" stroke="none">
<path d="M943 1300 c-43 -26 -66 -63 -66 -109 0 -119 161 -166 227 -66 22 34
23 98 2 130 -22 33 -74 65 -106 65 -14 0 -39 -9 -57 -20z m102 -15 c83 -40 70
-168 -19 -191 -62 -15 -126 31 -126 90 0 49 18 82 54 100 39 20 50 20 91 1z"></path>
<path d="M980 1196 c0 -51 5 -54 38 -27 28 24 28 25 -8 51 l-30 21 0 -45z"></path>
<path d="M782 908 c3 -85 5 -93 23 -93 19 0 20 7 20 90 0 86 -1 90 -23 93 -22
3 -23 2 -20 -90z"></path>
<path d="M947 993 c-4 -3 -7 -15 -7 -25 0 -13 -8 -18 -29 -18 -33 0 -49 -15
-57 -58 -12 -57 61 -102 117 -72 16 9 19 22 19 95 0 76 -2 85 -18 85 -10 0
-22 -3 -25 -7z m-7 -109 c0 -28 -3 -35 -17 -32 -22 4 -29 34 -13 53 20 24 30
17 30 -21z"></path>
<path d="M1187 993 c-12 -12 -8 -158 5 -171 30 -30 38 -14 38 83 0 85 -2 95
-18 95 -10 0 -22 -3 -25 -7z"></path>
<path d="M485 965 c-36 -35 -35 -105 1 -134 31 -24 86 -28 104 -6 17 20 5 33
-25 27 -33 -6 -55 13 -55 48 0 35 23 54 54 46 32 -8 45 13 21 31 -29 21 -73
16 -100 -12z"></path>
<path d="M1038 979 c-24 -13 -26 -140 -3 -159 21 -18 45 -5 45 25 0 19 5 25
21 25 39 0 59 19 59 55 0 24 -7 39 -22 49 -25 18 -74 20 -100 5z m70 -51 c2
-9 -4 -18 -13 -21 -11 -5 -15 0 -15 19 0 28 23 29 28 2z"></path>
<path d="M626 928 c-23 -32 -20 -65 9 -93 31 -32 69 -32 102 1 20 20 24 31 19
57 -8 41 -30 57 -77 57 -28 0 -42 -6 -53 -22z m74 -23 c17 -20 8 -50 -15 -50
-20 0 -31 25 -21 51 7 18 20 18 36 -1z"></path>
<path d="M1267 944 c-14 -14 6 -30 32 -26 16 2 32 -1 35 -7 5 -7 -1 -11 -14
-11 -35 0 -60 -19 -60 -45 0 -28 26 -45 69 -45 40 0 61 24 61 70 0 51 -21 70
-74 70 -23 0 -45 -3 -49 -6z m73 -82 c0 -14 -11 -21 -26 -15 -8 3 -11 9 -8 14
7 11 34 12 34 1z"></path>
<path d="M1400 947 c0 -12 35 -104 43 -115 7 -9 4 -18 -8 -32 -17 -19 -17 -20
0 -26 27 -11 47 7 78 66 33 65 36 110 7 110 -15 0 -22 -11 -32 -47 l-12 -48
-14 48 c-11 39 -17 47 -38 47 -13 0 -24 -1 -24 -3z"></path>
</g>
</svg>
