<svg version="1.0" xmlns="http://www.w3.org/2000/svg" width="266.667" height="266.667" viewBox="0 0 200 200"><path d="M94.3 70c-4.3 2.6-6.6 6.3-6.6 10.9 0 11.9 16.1 16.6 22.7 6.6 2.2-3.4 2.3-9.8.2-13-2.2-3.3-7.4-6.5-10.6-6.5-1.4 0-3.9.9-5.7 2zm10.2 1.5c8.3 4 7 16.8-1.9 19.1-6.2 1.5-12.6-3.1-12.6-9 0-4.9 1.8-8.2 5.4-10 3.9-2 5-2 9.1-.1z"/><path d="M98 80.4c0 5.1.5 5.4 3.8 2.7 2.8-2.4 2.8-2.5-.8-5.1l-3-2.1v4.5zM78.2 109.2c.3 8.5.5 9.3 2.3 9.3 1.9 0 2-.7 2-9 0-8.6-.1-9-2.3-9.3-2.2-.3-2.3-.2-2 9zM94.7 100.7c-.4.3-.7 1.5-.7 2.5 0 1.3-.8 1.8-2.9 1.8-3.3 0-4.9 1.5-5.7 5.8-1.2 5.7 6.1 10.2 11.7 7.2 1.6-.9 1.9-2.2 1.9-9.5 0-7.6-.2-8.5-1.8-8.5-1 0-2.2.3-2.5.7zm-.7 10.9c0 2.8-.3 3.5-1.7 3.2-2.2-.4-2.9-3.4-1.3-5.3 2-2.4 3-1.7 3 2.1zM118.7 100.7c-1.2 1.2-.8 15.8.5 17.1 3 3 3.8 1.4 3.8-8.3 0-8.5-.2-9.5-1.8-9.5-1 0-2.2.3-2.5.7zM48.5 103.5c-3.6 3.5-3.5 10.5.1 13.4 3.1 2.4 8.6 2.8 10.4.6 1.7-2 .5-3.3-2.5-2.7-3.3.6-5.5-1.3-5.5-4.8s2.3-5.4 5.4-4.6c3.2.8 4.5-1.3 2.1-3.1-2.9-2.1-7.3-1.6-10 1.2zM103.8 102.1c-2.4 1.3-2.6 14-.3 15.9 2.1 1.8 4.5.5 4.5-2.5 0-1.9.5-2.5 2.1-2.5 3.9 0 5.9-1.9 5.9-5.5 0-2.4-.7-3.9-2.2-4.9-2.5-1.8-7.4-2-10-.5zm7 5.1c.2.9-.4 1.8-1.3 2.1-1.1.5-1.5 0-1.5-1.9 0-2.8 2.3-2.9 2.8-.2zM62.6 107.2c-2.3 3.2-2 6.5.9 9.3 3.1 3.2 6.9 3.2 10.2-.1 2-2 2.4-3.1 1.9-5.7-.8-4.1-3-5.7-7.7-5.7-2.8 0-4.2.6-5.3 2.2zm7.4 2.3c1.7 2 .8 5-1.5 5-2 0-3.1-2.5-2.1-5.1.7-1.8 2-1.8 3.6.1zM126.7 105.6c-1.4 1.4.6 3 3.2 2.6 1.6-.2 3.2.1 3.5.7.5.7-.1 1.1-1.4 1.1-3.5 0-6 1.9-6 4.5 0 2.8 2.6 4.5 6.9 4.5 4 0 6.1-2.4 6.1-7 0-5.1-2.1-7-7.4-7-2.3 0-4.5.3-4.9.6zm7.3 8.2c0 1.4-1.1 2.1-2.6 1.5-.8-.3-1.1-.9-.8-1.4.7-1.1 3.4-1.2 3.4-.1zM140 105.3c0 1.2 3.5 10.4 4.3 11.5.7.9.4 1.8-.8 3.2-1.7 1.9-1.7 2 0 2.6 2.7 1.1 4.7-.7 7.8-6.6 3.3-6.5 3.6-11 .7-11-1.5 0-2.2 1.1-3.2 4.7l-1.2 4.8-1.4-4.8c-1.1-3.9-1.7-4.7-3.8-4.7-1.3 0-2.4.1-2.4.3z"/></svg>