<?xml version="1.0" standalone="no"?>
<!DOCTYPE svg PUBLIC "-//W3C//DTD SVG 20010904//EN"
 "http://www.w3.org/TR/2001/REC-SVG-20010904/DTD/svg10.dtd">
<svg version="1.0" xmlns="http://www.w3.org/2000/svg" width="200.000000pt" height="200.000000pt" viewBox="0 0 200.000000 200.000000" preserveAspectRatio="xMidYMid meet">

<g transform="translate(0.000000,200.000000) scale(0.100000,-0.100000)" fill="#000000" stroke="none">
<path d="M0 1000 l0 -1000 1000 0 1000 0 0 1000 0 1000 -1000 0 -1000 0 0
-1000z m1056 374 c87 -41 89 -175 3 -220 -107 -55 -219 50 -171 159 31 69 99
94 168 61z m-208 -372 c3 -75 1 -82 -17 -82 -25 0 -31 18 -31 94 0 67 5 78 30
74 12 -3 16 -21 18 -86z m140 8 c3 -80 -2 -90 -52 -90 -38 0 -66 26 -66 62 0
32 31 68 59 68 11 0 21 9 24 21 3 12 12 19 19 17 9 -3 14 -28 16 -78z m220 -8
c3 -82 2 -83 -20 -80 -21 3 -23 9 -26 72 -3 80 1 99 25 94 15 -3 18 -16 21
-86z m-584 72 c9 -3 16 -14 16 -23 0 -14 -7 -17 -29 -13 -22 3 -32 -1 -41 -17
-22 -42 0 -67 53 -61 13 1 18 -4 15 -17 -2 -13 -14 -19 -40 -21 -50 -4 -78 24
-78 77 0 58 52 95 104 75z m486 -4 c11 -6 24 -20 30 -31 16 -28 -11 -69 -45
-69 -20 0 -25 -5 -25 -26 0 -21 -4 -25 -22 -22 -21 3 -23 9 -26 72 -3 74 3 86
46 86 13 0 32 -5 42 -10z m-352 -37 c47 -40 23 -113 -37 -113 -35 0 -58 18
-66 52 -5 21 -1 33 19 52 29 30 56 33 84 9z m563 7 c15 -8 19 -21 19 -59 0
-53 -8 -61 -60 -61 -59 0 -67 57 -10 77 l35 12 -32 0 c-38 1 -50 16 -26 30 23
13 49 14 74 1z m87 -31 l16 -41 11 38 c12 43 38 53 43 16 4 -28 -42 -130 -63
-138 -8 -3 -22 -3 -31 0 -15 6 -15 8 0 24 15 17 14 21 -4 57 -21 40 -25 67
-13 78 14 15 25 5 41 -34z"></path>
<path d="M954 1354 c-57 -28 -73 -111 -30 -157 83 -90 216 5 165 117 -11 24
-63 56 -91 56 -7 0 -27 -7 -44 -16z m76 -78 c10 -13 9 -19 -11 -36 -35 -28
-39 -25 -39 25 0 41 2 45 18 36 10 -5 24 -17 32 -25z"></path>
<path d="M914 995 c-6 -16 12 -45 27 -45 5 0 9 14 9 30 0 32 -26 43 -36 15z"></path>
<path d="M1070 1019 c0 -24 23 -21 28 4 2 10 -3 17 -12 17 -10 0 -16 -9 -16
-21z"></path>
<path d="M704 996 c-8 -22 3 -49 19 -43 6 2 12 14 12 27 0 27 -22 39 -31 16z"></path>
<path d="M1270 960 c0 -5 7 -10 15 -10 8 0 15 5 15 10 0 6 -7 10 -15 10 -8 0
-15 -4 -15 -10z"></path>
</g>
</svg>
