<svg version="1.0" xmlns="http://www.w3.org/2000/svg" width="266.667" height="266.667" viewBox="0 0 200 200"><path d="M0 100v100h200V0H0v100zm105.6-37.4c8.7 4.1 8.9 17.5.3 22-10.7 5.5-21.9-5-17.1-15.9 3.1-6.9 9.9-9.4 16.8-6.1zM84.8 99.8c.3 7.5.1 8.2-1.7 8.2-2.5 0-3.1-1.8-3.1-9.4 0-6.7.5-7.8 3-7.4 1.2.3 1.6 2.1 1.8 8.6zm14-.8c.3 8-.2 9-5.2 9-3.8 0-6.6-2.6-6.6-6.2 0-3.2 3.1-6.8 5.9-6.8 1.1 0 2.1-.9 2.4-2.1.3-1.2 1.2-1.9 1.9-1.7.9.3 1.4 2.8 1.6 7.8zm22 .8c.3 8.2.2 8.3-2 8-2.1-.3-2.3-.9-2.6-7.2-.3-8 .1-9.9 2.5-9.4 1.5.3 1.8 1.6 2.1 8.6zm-58.4-7.2c.9.3 1.6 1.4 1.6 2.3 0 1.4-.7 1.7-2.9 1.3-2.2-.3-3.2.1-4.1 1.7-2.2 4.2 0 6.7 5.3 6.1 1.3-.1 1.8.4 1.5 1.7-.2 1.3-1.4 1.9-4 2.1-5 .4-7.8-2.4-7.8-7.7 0-5.8 5.2-9.5 10.4-7.5zm48.6.4c1.1.6 2.4 2 3 3.1 1.6 2.8-1.1 6.9-4.5 6.9-2 0-2.5.5-2.5 2.6s-.4 2.5-2.2 2.2c-2.1-.3-2.3-.9-2.6-7.2-.3-7.4.3-8.6 4.6-8.6 1.3 0 3.2.5 4.2 1zm-35.2 3.7c4.7 4 2.3 11.3-3.7 11.3-3.5 0-5.8-1.8-6.6-5.2-.5-2.1-.1-3.3 1.9-5.2 2.9-3 5.6-3.3 8.4-.9zm56.3-.7c1.5.8 1.9 2.1 1.9 5.9 0 5.3-.8 6.1-6 6.1-5.9 0-6.7-5.7-1-7.7l3.5-1.2h-3.2c-3.8-.1-5-1.6-2.6-3 2.3-1.3 4.9-1.4 7.4-.1zm8.7 3.1 1.6 4.1 1.1-3.8c1.2-4.3 3.8-5.3 4.3-1.6.4 2.8-4.2 13-6.3 13.8-.8.3-2.2.3-3.1 0-1.5-.6-1.5-.8 0-2.4 1.5-1.7 1.4-2.1-.4-5.7-2.1-4-2.5-6.7-1.3-7.8 1.4-1.5 2.5-.5 4.1 3.4z"/><path d="M95.4 64.6c-5.7 2.8-7.3 11.1-3 15.7 8.3 9 21.6-.5 16.5-11.7-1.1-2.4-6.3-5.6-9.1-5.6-.7 0-2.7.7-4.4 1.6zm7.6 7.8c1 1.3.9 1.9-1.1 3.6-3.5 2.8-3.9 2.5-3.9-2.5 0-4.1.2-4.5 1.8-3.6 1 .5 2.4 1.7 3.2 2.5zM91.4 100.5c-.6 1.6 1.2 4.5 2.7 4.5.5 0 .9-1.4.9-3 0-3.2-2.6-4.3-3.6-1.5zM107 98.1c0 2.4 2.3 2.1 2.8-.4.2-1-.3-1.7-1.2-1.7-1 0-1.6.9-1.6 2.1zM70.4 100.4c-.8 2.2.3 4.9 1.9 4.3.6-.2 1.2-1.4 1.2-2.7 0-2.7-2.2-3.9-3.1-1.6zM127 104c0 .5.7 1 1.5 1s1.5-.5 1.5-1c0-.6-.7-1-1.5-1s-1.5.4-1.5 1z"/></svg>